<mxfile host="app.diagrams.net" modified="2024-01-25T14:38:19.765Z" agent="Mozilla/5.0 (Macintosh; Intel Mac OS X 10.15; rv:121.0) Gecko/20100101 Firefox/121.0" etag="oLERLRJ9DSf_2VMODn_g" version="23.0.1" type="device">
  <diagram name="Page-1" id="AeqbyaVCp8AjWhaYUgvM">
    <mxGraphModel dx="1442" dy="985" grid="1" gridSize="10" guides="1" tooltips="1" connect="1" arrows="1" fold="1" page="1" pageScale="1" pageWidth="3300" pageHeight="4681" math="0" shadow="0">
      <root>
        <mxCell id="0" />
        <mxCell id="1" parent="0" />
        <mxCell id="rqjfTiNqwrKBO8YYa6vP-207" value="" style="rounded=0;whiteSpace=wrap;html=1;fillColor=#fff2cc;strokeColor=#d6b656;align=left;" vertex="1" parent="1">
          <mxGeometry x="810" y="760" width="130" height="140" as="geometry" />
        </mxCell>
        <mxCell id="rqjfTiNqwrKBO8YYa6vP-158" value="" style="rounded=0;whiteSpace=wrap;html=1;fillColor=#DAE8FC;strokeColor=#6c8ebf;align=left;" vertex="1" parent="1">
          <mxGeometry x="361.47" y="222.44" width="90" height="307.56" as="geometry" />
        </mxCell>
        <mxCell id="rqjfTiNqwrKBO8YYa6vP-20" value="" style="rounded=0;whiteSpace=wrap;html=1;fillColor=#D5E8D4;strokeColor=#82b366;align=left;" vertex="1" parent="1">
          <mxGeometry x="188.53" y="222.44" width="172.94" height="307.56" as="geometry" />
        </mxCell>
        <mxCell id="rqjfTiNqwrKBO8YYa6vP-5" value="No Censoring&lt;br&gt;or Truncation" style="text;html=1;strokeColor=none;fillColor=none;align=center;verticalAlign=middle;whiteSpace=wrap;rounded=0;fontSize=14;fontStyle=1" vertex="1" parent="1">
          <mxGeometry x="451.47" y="267.44" width="110" height="30" as="geometry" />
        </mxCell>
        <mxCell id="rqjfTiNqwrKBO8YYa6vP-10" value="Patient" style="shape=umlActor;verticalLabelPosition=bottom;verticalAlign=top;html=1;outlineConnect=0;aspect=fixed;" vertex="1" parent="1">
          <mxGeometry x="60" y="252.56" width="22.44" height="44.8818" as="geometry" />
        </mxCell>
        <mxCell id="rqjfTiNqwrKBO8YYa6vP-21" value="Observation period" style="text;html=1;strokeColor=none;fillColor=none;align=center;verticalAlign=middle;whiteSpace=wrap;rounded=0;fontStyle=1" vertex="1" parent="1">
          <mxGeometry x="188.53000000000003" y="222.44" width="179.56" height="30" as="geometry" />
        </mxCell>
        <mxCell id="rqjfTiNqwrKBO8YYa6vP-136" value="" style="endArrow=classic;html=1;rounded=0;strokeWidth=3;" edge="1" parent="1">
          <mxGeometry width="50" height="50" relative="1" as="geometry">
            <mxPoint x="98.53" y="560" as="sourcePoint" />
            <mxPoint x="490" y="560" as="targetPoint" />
          </mxGeometry>
        </mxCell>
        <mxCell id="rqjfTiNqwrKBO8YYa6vP-191" style="edgeStyle=orthogonalEdgeStyle;rounded=0;orthogonalLoop=1;jettySize=auto;html=1;entryX=0;entryY=0.5;entryDx=0;entryDy=0;" edge="1" parent="1" source="rqjfTiNqwrKBO8YYa6vP-134" target="rqjfTiNqwrKBO8YYa6vP-137">
          <mxGeometry relative="1" as="geometry" />
        </mxCell>
        <mxCell id="rqjfTiNqwrKBO8YYa6vP-134" value="Diagnosed and&lt;br&gt;Enrolled" style="shape=image;html=1;verticalAlign=top;verticalLabelPosition=bottom;labelBackgroundColor=none;imageAspect=0;aspect=fixed;image=https://cdn3.iconfinder.com/data/icons/clinical-3/96/medical-checkup-128.png;imageBackground=#D5E8D4;align=center;" vertex="1" parent="1">
          <mxGeometry x="210.00000000000003" y="252.44" width="45" height="45" as="geometry" />
        </mxCell>
        <mxCell id="rqjfTiNqwrKBO8YYa6vP-137" value="&lt;span style=&quot;&quot;&gt;Dies&lt;/span&gt;" style="shape=image;html=1;verticalAlign=top;verticalLabelPosition=bottom;labelBackgroundColor=none;imageAspect=0;aspect=fixed;image=https://cdn4.iconfinder.com/data/icons/corona-virus-5/32/thermometer-128.png;imageBackground=#D5E8D4;" vertex="1" parent="1">
          <mxGeometry x="305" y="252.56" width="44.88" height="44.8818" as="geometry" />
        </mxCell>
        <mxCell id="rqjfTiNqwrKBO8YYa6vP-140" value="Time" style="text;html=1;strokeColor=none;fillColor=none;align=center;verticalAlign=middle;whiteSpace=wrap;rounded=0;fontSize=16;" vertex="1" parent="1">
          <mxGeometry x="470.00000000000006" y="570" width="32.5" height="20" as="geometry" />
        </mxCell>
        <mxCell id="rqjfTiNqwrKBO8YYa6vP-148" value="Patient" style="shape=umlActor;verticalLabelPosition=bottom;verticalAlign=top;html=1;outlineConnect=0;aspect=fixed;" vertex="1" parent="1">
          <mxGeometry x="60" y="352.44" width="22.44" height="44.8818" as="geometry" />
        </mxCell>
        <mxCell id="rqjfTiNqwrKBO8YYa6vP-193" style="edgeStyle=orthogonalEdgeStyle;rounded=0;orthogonalLoop=1;jettySize=auto;html=1;entryX=0;entryY=0.5;entryDx=0;entryDy=0;" edge="1" parent="1" source="rqjfTiNqwrKBO8YYa6vP-151" target="rqjfTiNqwrKBO8YYa6vP-154">
          <mxGeometry relative="1" as="geometry" />
        </mxCell>
        <mxCell id="rqjfTiNqwrKBO8YYa6vP-151" value="Diagnosed and&lt;br&gt;Enrolled" style="shape=image;html=1;verticalAlign=top;verticalLabelPosition=bottom;labelBackgroundColor=none;imageAspect=0;aspect=fixed;image=https://cdn3.iconfinder.com/data/icons/clinical-3/96/medical-checkup-128.png;imageBackground=#D5E8D4;align=center;" vertex="1" parent="1">
          <mxGeometry x="210.00000000000003" y="352.32" width="45" height="45" as="geometry" />
        </mxCell>
        <mxCell id="rqjfTiNqwrKBO8YYa6vP-152" value="&lt;span style=&quot;&quot;&gt;Dies&lt;/span&gt;" style="shape=image;html=1;verticalAlign=top;verticalLabelPosition=bottom;labelBackgroundColor=none;imageAspect=0;aspect=fixed;image=https://cdn4.iconfinder.com/data/icons/corona-virus-5/32/thermometer-128.png;imageBackground=#DAE8FC;" vertex="1" parent="1">
          <mxGeometry x="383.28999999999996" y="352.43999999999994" width="44.88" height="44.8818" as="geometry" />
        </mxCell>
        <mxCell id="rqjfTiNqwrKBO8YYa6vP-194" style="edgeStyle=orthogonalEdgeStyle;rounded=0;orthogonalLoop=1;jettySize=auto;html=1;entryX=0;entryY=0.5;entryDx=0;entryDy=0;" edge="1" parent="1" source="rqjfTiNqwrKBO8YYa6vP-154" target="rqjfTiNqwrKBO8YYa6vP-152">
          <mxGeometry relative="1" as="geometry" />
        </mxCell>
        <mxCell id="rqjfTiNqwrKBO8YYa6vP-154" value="Exits study" style="shape=image;html=1;verticalAlign=top;verticalLabelPosition=bottom;labelBackgroundColor=none;imageAspect=0;aspect=fixed;image=https://cdn1.iconfinder.com/data/icons/material-core/18/exit-to-app-128.png;imageBackground=#D5E8D4;fontSize=12;" vertex="1" parent="1">
          <mxGeometry x="305.00000000000006" y="352.32" width="44.88" height="44.8818" as="geometry" />
        </mxCell>
        <mxCell id="rqjfTiNqwrKBO8YYa6vP-67" value="Unobserved" style="text;html=1;strokeColor=none;fillColor=none;align=center;verticalAlign=middle;whiteSpace=wrap;rounded=0;fontStyle=1" vertex="1" parent="1">
          <mxGeometry x="361.47" y="222.44" width="88.53" height="30" as="geometry" />
        </mxCell>
        <mxCell id="rqjfTiNqwrKBO8YYa6vP-160" value="Left Truncation" style="text;html=1;strokeColor=none;fillColor=none;align=center;verticalAlign=middle;whiteSpace=wrap;rounded=0;fontSize=14;fontStyle=1" vertex="1" parent="1">
          <mxGeometry x="451.47" y="470.6" width="110" height="30" as="geometry" />
        </mxCell>
        <mxCell id="rqjfTiNqwrKBO8YYa6vP-195" style="edgeStyle=orthogonalEdgeStyle;rounded=0;orthogonalLoop=1;jettySize=auto;html=1;entryX=0;entryY=0.5;entryDx=0;entryDy=0;" edge="1" parent="1" source="rqjfTiNqwrKBO8YYa6vP-161" target="rqjfTiNqwrKBO8YYa6vP-164">
          <mxGeometry relative="1" as="geometry" />
        </mxCell>
        <mxCell id="rqjfTiNqwrKBO8YYa6vP-161" value="Patient" style="shape=umlActor;verticalLabelPosition=bottom;verticalAlign=top;html=1;outlineConnect=0;aspect=fixed;" vertex="1" parent="1">
          <mxGeometry x="60" y="455.72" width="22.44" height="44.8818" as="geometry" />
        </mxCell>
        <mxCell id="rqjfTiNqwrKBO8YYa6vP-165" value="&lt;span style=&quot;&quot;&gt;Dies&lt;/span&gt;" style="shape=image;html=1;verticalAlign=top;verticalLabelPosition=bottom;labelBackgroundColor=none;imageAspect=0;aspect=fixed;image=https://cdn4.iconfinder.com/data/icons/corona-virus-5/32/thermometer-128.png;imageBackground=#D5E8D4;" vertex="1" parent="1">
          <mxGeometry x="304.99999999999994" y="455.7200000000001" width="44.88" height="44.8818" as="geometry" />
        </mxCell>
        <mxCell id="rqjfTiNqwrKBO8YYa6vP-172" value="" style="group;align=left;" vertex="1" connectable="0" parent="1">
          <mxGeometry x="210" y="455.72" width="48.81999999999999" height="44.8818" as="geometry" />
        </mxCell>
        <mxCell id="rqjfTiNqwrKBO8YYa6vP-170" value="" style="rounded=0;whiteSpace=wrap;html=1;strokeColor=none;fillColor=#D5E8D4;" vertex="1" parent="rqjfTiNqwrKBO8YYa6vP-172">
          <mxGeometry width="48.818799999999996" height="44.8818" as="geometry" />
        </mxCell>
        <mxCell id="rqjfTiNqwrKBO8YYa6vP-167" value="Enrolled" style="sketch=0;pointerEvents=1;shadow=0;dashed=0;html=1;strokeColor=none;fillColor=#000000;labelPosition=center;verticalLabelPosition=bottom;verticalAlign=top;outlineConnect=0;align=center;shape=mxgraph.office.concepts.sign_up;aspect=fixed;gradientColor=none;" vertex="1" parent="rqjfTiNqwrKBO8YYa6vP-172">
          <mxGeometry x="0.12000000000000455" width="48.7" height="44.8818" as="geometry" />
        </mxCell>
        <mxCell id="rqjfTiNqwrKBO8YYa6vP-173" value="" style="rounded=0;whiteSpace=wrap;html=1;fillColor=#D5E8D4;strokeColor=#82b366;align=left;" vertex="1" parent="1">
          <mxGeometry x="810" y="605" width="270" height="140" as="geometry" />
        </mxCell>
        <mxCell id="rqjfTiNqwrKBO8YYa6vP-214" style="edgeStyle=orthogonalEdgeStyle;rounded=0;orthogonalLoop=1;jettySize=auto;html=1;entryX=0;entryY=0.5;entryDx=0;entryDy=0;" edge="1" parent="1" source="rqjfTiNqwrKBO8YYa6vP-174" target="rqjfTiNqwrKBO8YYa6vP-177">
          <mxGeometry relative="1" as="geometry" />
        </mxCell>
        <mxCell id="rqjfTiNqwrKBO8YYa6vP-174" value="Patient in&lt;br&gt;control group" style="shape=umlActor;verticalLabelPosition=bottom;verticalAlign=top;html=1;outlineConnect=0;aspect=fixed;" vertex="1" parent="1">
          <mxGeometry x="740" y="650.0600000000001" width="22.44" height="44.8818" as="geometry" />
        </mxCell>
        <mxCell id="rqjfTiNqwrKBO8YYa6vP-175" value="Observation period" style="text;html=1;strokeColor=none;fillColor=none;align=left;verticalAlign=middle;whiteSpace=wrap;rounded=0;fontStyle=1" vertex="1" parent="1">
          <mxGeometry x="815.44" y="605" width="179.56" height="30" as="geometry" />
        </mxCell>
        <mxCell id="rqjfTiNqwrKBO8YYa6vP-215" style="edgeStyle=orthogonalEdgeStyle;rounded=0;orthogonalLoop=1;jettySize=auto;html=1;entryX=0;entryY=0.5;entryDx=0;entryDy=0;" edge="1" parent="1" source="rqjfTiNqwrKBO8YYa6vP-177" target="rqjfTiNqwrKBO8YYa6vP-178">
          <mxGeometry relative="1" as="geometry" />
        </mxCell>
        <mxCell id="rqjfTiNqwrKBO8YYa6vP-177" value="Diagnosed and&lt;br&gt;Enrolled" style="shape=image;html=1;verticalAlign=top;verticalLabelPosition=bottom;labelBackgroundColor=none;imageAspect=0;aspect=fixed;image=https://cdn3.iconfinder.com/data/icons/clinical-3/96/medical-checkup-128.png;imageBackground=#D5E8D4;align=center;" vertex="1" parent="1">
          <mxGeometry x="830" y="650.0600000000001" width="45" height="45" as="geometry" />
        </mxCell>
        <mxCell id="rqjfTiNqwrKBO8YYa6vP-178" value="&lt;span style=&quot;&quot;&gt;Dies&lt;/span&gt;" style="shape=image;html=1;verticalAlign=top;verticalLabelPosition=bottom;labelBackgroundColor=none;imageAspect=0;aspect=fixed;image=https://cdn4.iconfinder.com/data/icons/corona-virus-5/32/thermometer-128.png;imageBackground=#D5E8D4;" vertex="1" parent="1">
          <mxGeometry x="1025.12" y="650.1800000000001" width="44.88" height="44.8818" as="geometry" />
        </mxCell>
        <mxCell id="rqjfTiNqwrKBO8YYa6vP-185" value="Right Censoring" style="text;html=1;strokeColor=none;fillColor=none;align=center;verticalAlign=middle;whiteSpace=wrap;rounded=0;fontSize=14;fontStyle=1" vertex="1" parent="1">
          <mxGeometry x="450" y="367.32" width="127.44" height="30" as="geometry" />
        </mxCell>
        <mxCell id="rqjfTiNqwrKBO8YYa6vP-186" value="" style="rounded=0;whiteSpace=wrap;html=1;fillColor=#DAE8FC;strokeColor=#6c8ebf;align=left;" vertex="1" parent="1">
          <mxGeometry x="98.53" y="222.44" width="90" height="307.56" as="geometry" />
        </mxCell>
        <mxCell id="rqjfTiNqwrKBO8YYa6vP-187" value="Unobserved" style="text;html=1;strokeColor=none;fillColor=none;align=center;verticalAlign=middle;whiteSpace=wrap;rounded=0;fontStyle=1" vertex="1" parent="1">
          <mxGeometry x="99.27000000000004" y="222.56" width="88.53" height="30" as="geometry" />
        </mxCell>
        <mxCell id="rqjfTiNqwrKBO8YYa6vP-196" style="edgeStyle=orthogonalEdgeStyle;rounded=0;orthogonalLoop=1;jettySize=auto;html=1;" edge="1" parent="1" source="rqjfTiNqwrKBO8YYa6vP-164" target="rqjfTiNqwrKBO8YYa6vP-167">
          <mxGeometry relative="1" as="geometry" />
        </mxCell>
        <mxCell id="rqjfTiNqwrKBO8YYa6vP-164" value="Diagnosed" style="shape=image;html=1;verticalAlign=top;verticalLabelPosition=bottom;labelBackgroundColor=none;imageAspect=0;aspect=fixed;image=https://cdn3.iconfinder.com/data/icons/clinical-3/96/medical-checkup-128.png;imageBackground=#DAE8FC;" vertex="1" parent="1">
          <mxGeometry x="121.02999999999997" y="455.72000000000014" width="45" height="45" as="geometry" />
        </mxCell>
        <mxCell id="rqjfTiNqwrKBO8YYa6vP-190" style="edgeStyle=orthogonalEdgeStyle;rounded=0;orthogonalLoop=1;jettySize=auto;html=1;entryX=0;entryY=0.5;entryDx=0;entryDy=0;" edge="1" parent="1" source="rqjfTiNqwrKBO8YYa6vP-10" target="rqjfTiNqwrKBO8YYa6vP-134">
          <mxGeometry relative="1" as="geometry" />
        </mxCell>
        <mxCell id="rqjfTiNqwrKBO8YYa6vP-192" style="edgeStyle=orthogonalEdgeStyle;rounded=0;orthogonalLoop=1;jettySize=auto;html=1;entryX=0;entryY=0.5;entryDx=0;entryDy=0;" edge="1" parent="1" source="rqjfTiNqwrKBO8YYa6vP-148" target="rqjfTiNqwrKBO8YYa6vP-151">
          <mxGeometry relative="1" as="geometry" />
        </mxCell>
        <mxCell id="rqjfTiNqwrKBO8YYa6vP-197" style="edgeStyle=orthogonalEdgeStyle;rounded=0;orthogonalLoop=1;jettySize=auto;html=1;entryX=0;entryY=0.5;entryDx=0;entryDy=0;" edge="1" parent="1" source="rqjfTiNqwrKBO8YYa6vP-167" target="rqjfTiNqwrKBO8YYa6vP-165">
          <mxGeometry relative="1" as="geometry" />
        </mxCell>
        <mxCell id="rqjfTiNqwrKBO8YYa6vP-198" value="" style="rounded=0;whiteSpace=wrap;html=1;fillColor=#D5E8D4;strokeColor=#82b366;align=left;" vertex="1" parent="1">
          <mxGeometry x="940" y="760" width="140" height="140" as="geometry" />
        </mxCell>
        <mxCell id="rqjfTiNqwrKBO8YYa6vP-216" style="edgeStyle=orthogonalEdgeStyle;rounded=0;orthogonalLoop=1;jettySize=auto;html=1;entryX=0;entryY=0.5;entryDx=0;entryDy=0;" edge="1" parent="1" source="rqjfTiNqwrKBO8YYa6vP-199" target="rqjfTiNqwrKBO8YYa6vP-202">
          <mxGeometry relative="1" as="geometry" />
        </mxCell>
        <mxCell id="rqjfTiNqwrKBO8YYa6vP-199" value="Patient in&lt;br&gt;treatment group" style="shape=umlActor;verticalLabelPosition=bottom;verticalAlign=top;html=1;outlineConnect=0;aspect=fixed;" vertex="1" parent="1">
          <mxGeometry x="743.75" y="805.0600000000001" width="22.44" height="44.8818" as="geometry" />
        </mxCell>
        <mxCell id="rqjfTiNqwrKBO8YYa6vP-200" value="Observation period" style="text;html=1;strokeColor=none;fillColor=none;align=left;verticalAlign=middle;whiteSpace=wrap;rounded=0;fontStyle=1" vertex="1" parent="1">
          <mxGeometry x="940" y="762.5" width="130" height="30" as="geometry" />
        </mxCell>
        <mxCell id="rqjfTiNqwrKBO8YYa6vP-217" style="edgeStyle=orthogonalEdgeStyle;rounded=0;orthogonalLoop=1;jettySize=auto;html=1;exitX=1;exitY=0.5;exitDx=0;exitDy=0;entryX=0;entryY=0.5;entryDx=0;entryDy=0;" edge="1" parent="1" source="rqjfTiNqwrKBO8YYa6vP-202" target="rqjfTiNqwrKBO8YYa6vP-210">
          <mxGeometry relative="1" as="geometry" />
        </mxCell>
        <mxCell id="rqjfTiNqwrKBO8YYa6vP-202" value="Diagnosed and&lt;br&gt;Enrolled" style="shape=image;html=1;verticalAlign=top;verticalLabelPosition=bottom;labelBackgroundColor=none;imageAspect=0;aspect=fixed;image=https://cdn3.iconfinder.com/data/icons/clinical-3/96/medical-checkup-128.png;imageBackground=none;align=center;" vertex="1" parent="1">
          <mxGeometry x="833.75" y="805.0600000000001" width="45" height="45" as="geometry" />
        </mxCell>
        <mxCell id="rqjfTiNqwrKBO8YYa6vP-208" value="Immortal period" style="text;html=1;strokeColor=none;fillColor=none;align=left;verticalAlign=middle;whiteSpace=wrap;rounded=0;fontStyle=1" vertex="1" parent="1">
          <mxGeometry x="810" y="760" width="130" height="30" as="geometry" />
        </mxCell>
        <mxCell id="rqjfTiNqwrKBO8YYa6vP-209" value="" style="endArrow=classic;html=1;rounded=0;" edge="1" parent="1" source="rqjfTiNqwrKBO8YYa6vP-210" target="rqjfTiNqwrKBO8YYa6vP-203">
          <mxGeometry width="50" height="50" relative="1" as="geometry">
            <mxPoint x="773.75" y="827" as="sourcePoint" />
            <mxPoint x="1093.75" y="827" as="targetPoint" />
          </mxGeometry>
        </mxCell>
        <mxCell id="rqjfTiNqwrKBO8YYa6vP-203" value="&lt;span style=&quot;&quot;&gt;Dies&lt;/span&gt;" style="shape=image;html=1;verticalAlign=top;verticalLabelPosition=bottom;labelBackgroundColor=none;imageAspect=0;aspect=fixed;image=https://cdn4.iconfinder.com/data/icons/corona-virus-5/32/thermometer-128.png;imageBackground=#D5E8D4;" vertex="1" parent="1">
          <mxGeometry x="1025.12" y="805.0000000000001" width="44.88" height="44.8818" as="geometry" />
        </mxCell>
        <mxCell id="rqjfTiNqwrKBO8YYa6vP-210" value="Receives&lt;br&gt;Treatment" style="shape=image;html=1;verticalAlign=top;verticalLabelPosition=bottom;labelBackgroundColor=none;imageAspect=0;aspect=fixed;image=https://cdn1.iconfinder.com/data/icons/medic/128/Medical_Icon-01-128.png" vertex="1" parent="1">
          <mxGeometry x="950" y="805" width="44.88" height="44.8818" as="geometry" />
        </mxCell>
        <mxCell id="rqjfTiNqwrKBO8YYa6vP-212" value="" style="endArrow=classic;html=1;rounded=0;strokeWidth=3;" edge="1" parent="1">
          <mxGeometry width="50" height="50" relative="1" as="geometry">
            <mxPoint x="810" y="920" as="sourcePoint" />
            <mxPoint x="1080" y="920" as="targetPoint" />
          </mxGeometry>
        </mxCell>
        <mxCell id="rqjfTiNqwrKBO8YYa6vP-213" value="Time" style="text;html=1;strokeColor=none;fillColor=none;align=center;verticalAlign=middle;whiteSpace=wrap;rounded=0;fontSize=16;" vertex="1" parent="1">
          <mxGeometry x="1070" y="930" width="32.5" height="20" as="geometry" />
        </mxCell>
      </root>
    </mxGraphModel>
  </diagram>
</mxfile>
